<svg width="53" height="53" viewBox="0 0 53 53" fill="none" xmlns="http://www.w3.org/2000/svg">
    <g filter="url(#filter0_d_7729_12)">
        <path
            d="M49 24.5C49 36.9264 38.9264 47 26.5 47C14.0736 47 4 36.9264 4 24.5C4 12.0736 14.0736 2 26.5 2C38.9264 2 49 12.0736 49 24.5Z"
            fill="#2D2D2D" />
        <path
            d="M48.5 24.5C48.5 36.6503 38.6503 46.5 26.5 46.5C14.3497 46.5 4.5 36.6503 4.5 24.5C4.5 12.3497 14.3497 2.5 26.5 2.5C38.6503 2.5 48.5 12.3497 48.5 24.5Z"
            stroke="#5E5E5E" />
    </g>
    <path fill-rule="evenodd" clip-rule="evenodd"
        d="M19.9971 22.3035H23.3H28.7H32.0029L30.8687 29.6426C30.8057 30.0838 30.4277 30.408 29.9867 30.408H22.0128C21.5718 30.408 21.1939 30.0838 21.1309 29.6426L19.9971 22.3035ZM29.6 19.602V20.5025H32.0029H34.1C34.595 20.5025 35 20.9077 35 21.403C35 21.8983 34.595 22.3035 34.1 22.3035H33.8029C33.8029 22.3936 33.7939 22.4836 33.7849 22.5736L32.6511 29.9127C32.4531 31.2275 31.3187 32.2 29.9867 32.2H22.0128C20.6808 32.2 19.5469 31.2275 19.3489 29.9127L18.2151 22.5736C18.2061 22.4836 18.1971 22.3936 18.1971 22.3035H17.9C17.405 22.3035 17 21.8983 17 21.403C17 20.9077 17.405 20.5025 17.9 20.5025H19.9971H22.4V19.602C22.4 17.6119 24.011 16 26 16C27.989 16 29.6 17.6119 29.6 19.602ZM24.2 19.602V20.5025H27.8V19.602C27.8 18.6024 26.99 17.801 26 17.801C25.01 17.801 24.2 18.6115 24.2 19.602ZM26 28.607C25.505 28.607 25.1 28.2018 25.1 27.7065V25.005C25.1 24.5097 25.505 24.1045 26 24.1045C26.495 24.1045 26.9 24.5097 26.9 25.005V27.7065C26.9 28.2018 26.495 28.607 26 28.607ZM22.4 27.7065C22.4 28.2018 22.805 28.607 23.3 28.607C23.795 28.607 24.2 28.2018 24.2 27.7065V25.005C24.2 24.5097 23.795 24.1045 23.3 24.1045C22.805 24.1045 22.4 24.5097 22.4 25.005V27.7065ZM27.8 27.7065C27.8 28.2018 28.205 28.607 28.7 28.607C29.195 28.607 29.6 28.2018 29.6 27.7065V25.005C29.6 24.5097 29.195 24.1045 28.7 24.1045C28.205 24.1045 27.8 24.5097 27.8 25.005V27.7065Z"
        fill="white" />
    <defs>
        <filter id="filter0_d_7729_12" x="0" y="0" width="53" height="53"
            filterUnits="userSpaceOnUse" color-interpolation-filters="sRGB">
            <feFlood flood-opacity="0" result="BackgroundImageFix" />
            <feColorMatrix in="SourceAlpha" type="matrix"
                values="0 0 0 0 0 0 0 0 0 0 0 0 0 0 0 0 0 0 127 0" result="hardAlpha" />
            <feOffset dy="2" />
            <feGaussianBlur stdDeviation="2" />
            <feComposite in2="hardAlpha" operator="out" />
            <feColorMatrix type="matrix" values="0 0 0 0 1 0 0 0 0 1 0 0 0 0 1 0 0 0 0.25 0" />
            <feBlend mode="normal" in2="BackgroundImageFix" result="effect1_dropShadow_7729_12" />
            <feBlend mode="normal" in="SourceGraphic" in2="effect1_dropShadow_7729_12"
                result="shape" />
        </filter>
    </defs>
</svg>