<svg width="53" height="53" viewBox="0 0 53 53" fill="none" xmlns="http://www.w3.org/2000/svg">
    <g filter="url(#filter0_d_7729_7)">
        <path
            d="M49 24.5C49 36.9264 38.9264 47 26.5 47C14.0736 47 4 36.9264 4 24.5C4 12.0736 14.0736 2 26.5 2C38.9264 2 49 12.0736 49 24.5Z"
            fill="#2D2D2D" />
        <path
            d="M48.5 24.5C48.5 36.6503 38.6503 46.5 26.5 46.5C14.3497 46.5 4.5 36.6503 4.5 24.5C4.5 12.3497 14.3497 2.5 26.5 2.5C38.6503 2.5 48.5 12.3497 48.5 24.5Z"
            stroke="#5E5E5E" />
    </g>
    <path fill-rule="evenodd" clip-rule="evenodd"
        d="M25.6667 31.9992C25.6667 32.9863 24.8667 33.7778 23.8889 33.7778H21.6667C20.1556 33.7778 19 32.5861 19 31.1098V23.5952C19 22.8482 19.3556 22.1279 19.8889 21.6299L25.2222 16.7031C26.2 15.796 27.7111 15.7606 28.7778 16.6321L34.0217 21.1407C34.6439 21.6476 35 22.3947 35 23.1773V31.1098C35 32.5861 33.8444 33.7778 32.3333 33.7778H30.1111C29.1333 33.7778 28.3333 32.9774 28.3333 31.9992V27.5793H25.6667V31.9992ZM27.6224 17.9838C27.2668 17.6904 26.7328 17.708 26.4661 18.0103L21.0443 22.9371C20.8665 23.1061 20.7778 23.3462 20.7778 23.5952V31.1098C20.7778 31.599 21.1333 31.9992 21.6667 31.9992H23.8889V26.69C23.8889 26.2009 24.2444 25.8007 24.7778 25.8007H29.2222C29.7556 25.8007 30.1111 26.2009 30.1111 26.69V31.9992H32.3333C32.8667 31.9992 33.2222 31.599 33.2222 31.1098V23.1773C33.2222 22.9194 33.133 22.6704 32.8663 22.5014L27.6224 17.9838Z"
        fill="white" />
    <defs>
        <filter id="filter0_d_7729_7" x="0" y="0" width="53" height="53"
            filterUnits="userSpaceOnUse" color-interpolation-filters="sRGB">
            <feFlood flood-opacity="0" result="BackgroundImageFix" />
            <feColorMatrix in="SourceAlpha" type="matrix"
                values="0 0 0 0 0 0 0 0 0 0 0 0 0 0 0 0 0 0 127 0" result="hardAlpha" />
            <feOffset dy="2" />
            <feGaussianBlur stdDeviation="2" />
            <feComposite in2="hardAlpha" operator="out" />
            <feColorMatrix type="matrix" values="0 0 0 0 1 0 0 0 0 1 0 0 0 0 1 0 0 0 0.25 0" />
            <feBlend mode="normal" in2="BackgroundImageFix" result="effect1_dropShadow_7729_7" />
            <feBlend mode="normal" in="SourceGraphic" in2="effect1_dropShadow_7729_7" result="shape" />
        </filter>
    </defs>
</svg>