<svg width="53" height="53" viewBox="0 0 53 53" fill="none" xmlns="http://www.w3.org/2000/svg">
    <g filter="url(#filter0_d_7729_13)">
        <path
            d="M49 24.5C49 36.9264 38.9264 47 26.5 47C14.0736 47 4 36.9264 4 24.5C4 12.0736 14.0736 2 26.5 2C38.9264 2 49 12.0736 49 24.5Z"
            fill="#2D2D2D" />
        <path
            d="M48.5 24.5C48.5 36.6503 38.6503 46.5 26.5 46.5C14.3497 46.5 4.5 36.6503 4.5 24.5C4.5 12.3497 14.3497 2.5 26.5 2.5C38.6503 2.5 48.5 12.3497 48.5 24.5Z"
            stroke="#5E5E5E" />
    </g>
    <path
        d="M25.7065 29.4294V28.4294C25.4413 28.4294 25.187 28.5347 24.9994 28.7222L25.7065 29.4294ZM21.0109 34.125H20.0109C20.0109 34.5295 20.2545 34.8941 20.6282 35.0489C21.0019 35.2037 21.432 35.1181 21.718 34.8321L21.0109 34.125ZM21.0109 29.4294H22.0109C22.0109 28.8771 21.5632 28.4294 21.0109 28.4294V29.4294ZM24.875 17.125C25.4273 17.125 25.875 16.6773 25.875 16.125C25.875 15.5727 25.4273 15.125 24.875 15.125V17.125ZM36 24.5625C36 24.0102 35.5523 23.5625 35 23.5625C34.4477 23.5625 34 24.0102 34 24.5625H36ZM24.9994 28.7222L20.3038 33.4179L21.718 34.8321L26.4136 30.1365L24.9994 28.7222ZM22.0109 34.125V29.4294H20.0109V34.125H22.0109ZM21.0109 28.4294H19.25V30.4294H21.0109V28.4294ZM18 27.1794V18.375H16V27.1794H18ZM32.75 28.4294H25.7065V30.4294H32.75V28.4294ZM19.25 17.125H24.875V15.125H19.25V17.125ZM34 24.5625V27.1794H36V24.5625H34ZM32.75 30.4294C34.5449 30.4294 36 28.9743 36 27.1794H34C34 27.8697 33.4404 28.4294 32.75 28.4294V30.4294ZM18 18.375C18 17.6846 18.5596 17.125 19.25 17.125V15.125C17.4551 15.125 16 16.5801 16 18.375H18ZM19.25 28.4294C18.5596 28.4294 18 27.8697 18 27.1794H16C16 28.9743 17.4551 30.4294 19.25 30.4294V28.4294ZM34 18.375C34 19.6867 32.9367 20.75 31.625 20.75V22.75C34.0412 22.75 36 20.7912 36 18.375H34ZM31.625 20.75C30.3133 20.75 29.25 19.6867 29.25 18.375H27.25C27.25 20.7912 29.2088 22.75 31.625 22.75V20.75ZM29.25 18.375C29.25 17.0633 30.3133 16 31.625 16V14C29.2088 14 27.25 15.9588 27.25 18.375H29.25ZM31.625 16C32.9367 16 34 17.0633 34 18.375H36C36 15.9588 34.0412 14 31.625 14V16Z"
        fill="white" />
    <defs>
        <filter id="filter0_d_7729_13" x="0" y="0" width="53" height="53"
            filterUnits="userSpaceOnUse" color-interpolation-filters="sRGB">
            <feFlood flood-opacity="0" result="BackgroundImageFix" />
            <feColorMatrix in="SourceAlpha" type="matrix"
                values="0 0 0 0 0 0 0 0 0 0 0 0 0 0 0 0 0 0 127 0" result="hardAlpha" />
            <feOffset dy="2" />
            <feGaussianBlur stdDeviation="2" />
            <feComposite in2="hardAlpha" operator="out" />
            <feColorMatrix type="matrix" values="0 0 0 0 1 0 0 0 0 1 0 0 0 0 1 0 0 0 0.25 0" />
            <feBlend mode="normal" in2="BackgroundImageFix" result="effect1_dropShadow_7729_13" />
            <feBlend mode="normal" in="SourceGraphic" in2="effect1_dropShadow_7729_13"
                result="shape" />
        </filter>
    </defs>
</svg>