<svg width="145" height="96" viewBox="0 0 145 96" fill="none" xmlns="http://www.w3.org/2000/svg">
    <path
        d="M30.5373 11.072C29.8973 10.3467 29.1506 9.70666 28.2973 9.152C27.4439 8.55466 26.4839 8.04266 25.4173 7.616C24.3506 7.18933 23.1986 6.848 21.9613 6.592C20.7666 6.336 19.4866 6.208 18.1213 6.208C14.1533 6.208 11.2306 6.976 9.35325 8.512C7.51858 10.0053 6.60125 12.0533 6.60125 14.656C6.60125 16.448 7.02792 17.856 7.88125 18.88C8.77725 19.904 10.1639 20.736 12.0413 21.376C13.9186 22.016 16.3079 22.6773 19.2093 23.36C22.4519 24.0427 25.2466 24.8533 27.5933 25.792C29.9399 26.7307 31.7533 28.0107 33.0333 29.632C34.3133 31.2107 34.9533 33.3653 34.9533 36.096C34.9533 38.1867 34.5479 40 33.7373 41.536C32.9266 43.072 31.7959 44.352 30.3453 45.376C28.8946 46.4 27.1666 47.168 25.1613 47.68C23.1559 48.1493 20.9586 48.384 18.5693 48.384C16.2226 48.384 13.9613 48.1493 11.7853 47.68C9.65192 47.168 7.62525 46.4427 5.70525 45.504C3.78525 44.5227 1.99325 43.2853 0.32925 41.792L2.56925 38.144C3.37992 38.9973 4.33992 39.808 5.44925 40.576C6.60125 41.3013 7.85992 41.9627 9.22525 42.56C10.6333 43.1573 12.1266 43.6267 13.7053 43.968C15.3266 44.2667 16.9906 44.416 18.6973 44.416C22.3239 44.416 25.1399 43.7547 27.1453 42.432C29.1933 41.1093 30.2173 39.1467 30.2173 36.544C30.2173 34.6667 29.7053 33.1733 28.6813 32.064C27.6573 30.912 26.1213 29.9733 24.0733 29.248C22.0253 28.5227 19.5079 27.8187 16.5213 27.136C13.3639 26.4107 10.6973 25.6 8.52125 24.704C6.34525 23.808 4.70258 22.6347 3.59325 21.184C2.52658 19.6907 1.99325 17.728 1.99325 15.296C1.99325 12.48 2.67592 10.112 4.04125 8.192C5.44925 6.22933 7.36925 4.75733 9.80125 3.776C12.2333 2.752 15.0279 2.24 18.1853 2.24C20.1906 2.24 22.0466 2.45333 23.7533 2.88C25.5026 3.264 27.1026 3.84 28.5533 4.608C30.0466 5.376 31.4333 6.336 32.7133 7.488L30.5373 11.072ZM82.9403 14.656H87.2283L72.8923 48H69.1163L62.1403 31.424L55.2283 48H51.4523L37.1163 14.656H41.3403L53.5003 43.52L59.6443 28.48L54.0123 14.72H57.9163L62.1403 25.536L66.4283 14.72H70.2683L64.7003 28.48L70.8443 43.52L82.9403 14.656ZM93.0188 48V14.656H97.3708V48H93.0188ZM93.0188 7.68V1.28H97.3708V7.68H93.0188ZM108.556 48V18.112H103.948V14.656H108.556V13.76C108.556 11.0293 108.94 8.68266 109.708 6.72C110.519 4.75733 111.65 3.264 113.1 2.24C114.594 1.17333 116.343 0.639999 118.348 0.639999C119.671 0.639999 120.951 0.831999 122.188 1.216C123.426 1.6 124.492 2.112 125.388 2.752L124.044 5.888C123.49 5.41866 122.764 5.056 121.868 4.8C120.972 4.544 120.076 4.416 119.18 4.416C117.175 4.416 115.618 5.20533 114.508 6.784C113.442 8.36266 112.908 10.6453 112.908 13.632V14.656H122.124V18.112H112.908V48H108.556ZM144.081 46.4C143.74 46.528 143.207 46.7627 142.481 47.104C141.756 47.4453 140.881 47.744 139.857 48C138.833 48.256 137.724 48.384 136.529 48.384C135.292 48.384 134.119 48.1493 133.009 47.68C131.943 47.2107 131.089 46.5067 130.449 45.568C129.809 44.5867 129.489 43.392 129.489 41.984V18.112H124.881V14.656H129.489V3.392H133.841V14.656H141.521V18.112H133.841V40.768C133.927 41.9627 134.353 42.8587 135.121 43.456C135.932 44.0533 136.849 44.352 137.873 44.352C139.068 44.352 140.156 44.16 141.137 43.776C142.119 43.3493 142.716 43.0507 142.929 42.88L144.081 46.4ZM30.6214 80.6C30.6214 78.8667 30.9147 77.1733 31.5014 75.52C32.1147 73.84 32.9947 72.32 34.1414 70.96C35.2881 69.5733 36.7014 68.48 38.3814 67.68C40.0614 66.8533 41.9681 66.44 44.1014 66.44C46.6347 66.44 48.7947 67.0267 50.5814 68.2C52.3947 69.3467 53.7281 70.8267 54.5814 72.64L52.3814 74C51.7681 72.7467 50.9947 71.76 50.0614 71.04C49.1281 70.2933 48.1281 69.76 47.0614 69.44C46.0214 69.12 44.9814 68.96 43.9414 68.96C42.2347 68.96 40.7281 69.3067 39.4214 70C38.1147 70.6667 37.0081 71.5733 36.1014 72.72C35.2214 73.84 34.5547 75.1067 34.1014 76.52C33.6481 77.9067 33.4214 79.32 33.4214 80.76C33.4214 82.3333 33.6881 83.84 34.2214 85.28C34.7547 86.72 35.5014 88 36.4614 89.12C37.4214 90.2133 38.5414 91.0933 39.8214 91.76C41.1281 92.4 42.5414 92.72 44.0614 92.72C45.1281 92.72 46.2214 92.5333 47.3414 92.16C48.4614 91.7867 49.5014 91.2133 50.4614 90.44C51.4481 89.6667 52.2347 88.6667 52.8214 87.44L55.1414 88.64C54.5547 90.0533 53.6481 91.2533 52.4214 92.24C51.1947 93.2267 49.8214 93.9733 48.3014 94.48C46.8081 94.9867 45.3414 95.24 43.9014 95.24C41.9547 95.24 40.1681 94.8267 38.5414 94C36.9147 93.1467 35.5014 92.0267 34.3014 90.64C33.1281 89.2267 32.2214 87.6533 31.5814 85.92C30.9414 84.16 30.6214 82.3867 30.6214 80.6ZM57.6833 89C57.6833 87.6933 58.0566 86.5733 58.8033 85.64C59.5499 84.68 60.5766 83.9467 61.8833 83.44C63.2166 82.9067 64.7499 82.64 66.4833 82.64C67.4966 82.64 68.5499 82.72 69.6433 82.88C70.7366 83.04 71.7099 83.28 72.5633 83.6V81.84C72.5633 80.08 72.0433 78.68 71.0033 77.64C69.9633 76.6 68.5233 76.08 66.6833 76.08C65.5633 76.08 64.4566 76.2933 63.3633 76.72C62.2966 77.12 61.1766 77.72 60.0033 78.52L58.9633 76.6C60.3233 75.6667 61.6566 74.9733 62.9633 74.52C64.2699 74.04 65.6033 73.8 66.9633 73.8C69.5233 73.8 71.5499 74.5333 73.0433 76C74.5366 77.4667 75.2833 79.4933 75.2833 82.08V91.72C75.2833 92.0933 75.3633 92.3733 75.5233 92.56C75.6833 92.72 75.9366 92.8133 76.2833 92.84V95C75.9899 95.0267 75.7366 95.0533 75.5233 95.08C75.3099 95.1067 75.1499 95.1067 75.0433 95.08C74.3766 95.0533 73.8699 94.84 73.5233 94.44C73.1766 94.04 72.9899 93.6133 72.9633 93.16L72.9233 91.64C71.9899 92.84 70.7766 93.7733 69.2833 94.44C67.7899 95.08 66.2699 95.4 64.7233 95.4C63.3899 95.4 62.1766 95.12 61.0833 94.56C60.0166 93.9733 59.1766 93.2 58.5633 92.24C57.9766 91.2533 57.6833 90.1733 57.6833 89ZM71.6433 90.6C71.9366 90.2267 72.1633 89.8667 72.3233 89.52C72.4833 89.1733 72.5633 88.8667 72.5633 88.6V85.56C71.6566 85.2133 70.7099 84.9467 69.7233 84.76C68.7633 84.5733 67.7899 84.48 66.8033 84.48C64.8566 84.48 63.2833 84.8667 62.0833 85.64C60.8833 86.4133 60.2833 87.4667 60.2833 88.8C60.2833 89.5733 60.4833 90.3067 60.8833 91C61.2833 91.6667 61.8699 92.2267 62.6433 92.68C63.4166 93.1067 64.3233 93.32 65.3633 93.32C66.6699 93.32 67.8833 93.0667 69.0033 92.56C70.1499 92.0533 71.0299 91.4 71.6433 90.6ZM82.0039 95V76.32H79.1239V74.16H82.0039V73.6C82.0039 71.8933 82.2439 70.4267 82.7239 69.2C83.2306 67.9733 83.9372 67.04 84.8439 66.4C85.7772 65.7333 86.8706 65.4 88.1239 65.4C88.9506 65.4 89.7506 65.52 90.5239 65.76C91.2972 66 91.9639 66.32 92.5239 66.72L91.6839 68.68C91.3372 68.3867 90.8839 68.16 90.3239 68C89.7639 67.84 89.2039 67.76 88.6439 67.76C87.3906 67.76 86.4172 68.2533 85.7239 69.24C85.0572 70.2267 84.7239 71.6533 84.7239 73.52V74.16H90.4839V76.32H84.7239V95H82.0039ZM102.582 95.4C101.089 95.4 99.702 95.12 98.422 94.56C97.142 93.9733 96.0354 93.1867 95.102 92.2C94.1687 91.1867 93.4354 90.0267 92.902 88.72C92.3954 87.4133 92.142 86.0133 92.142 84.52C92.142 82.5733 92.582 80.7867 93.462 79.16C94.3687 77.5333 95.6087 76.24 97.182 75.28C98.7554 74.2933 100.542 73.8 102.542 73.8C104.595 73.8 106.382 74.2933 107.902 75.28C109.449 76.2667 110.662 77.5733 111.542 79.2C112.422 80.8 112.862 82.56 112.862 84.48C112.862 84.6933 112.862 84.9067 112.862 85.12C112.862 85.3067 112.849 85.4533 112.822 85.56H94.982C95.1154 87.0533 95.5287 88.3867 96.222 89.56C96.942 90.7067 97.862 91.6267 98.982 92.32C100.129 92.9867 101.369 93.32 102.702 93.32C104.062 93.32 105.342 92.9733 106.542 92.28C107.769 91.5867 108.622 90.68 109.102 89.56L111.462 90.2C111.035 91.1867 110.382 92.08 109.502 92.88C108.622 93.68 107.582 94.3067 106.382 94.76C105.209 95.1867 103.942 95.4 102.582 95.4ZM94.902 83.6H110.302C110.195 82.08 109.782 80.7467 109.062 79.6C108.369 78.4533 107.449 77.56 106.302 76.92C105.182 76.2533 103.942 75.92 102.582 75.92C101.222 75.92 99.982 76.2533 98.862 76.92C97.742 77.56 96.822 78.4667 96.102 79.64C95.4087 80.7867 95.0087 82.1067 94.902 83.6ZM103.382 70.2L101.582 69.52L103.942 65.8H106.822L103.382 70.2Z"
        fill="white" />
</svg>